<svg width="1440" height="1024" viewBox="0 0 1440 1024" fill="none" xmlns="http://www.w3.org/2000/svg">
<g id="work">
<g id="Desktop - 1">
<rect width="1440" height="1024" fill="none"/>
<g id="sit">
<path id="Vector" d="M465.747 577.171H1044.13V788.452H465.747V577.171Z" fill="#C5FFF4"/>
<path id="Vector_2" d="M533.805 627.142H994.154" stroke="white" stroke-width="12.98" stroke-linecap="round" stroke-linejoin="round"/>
<path id="Vector_3" d="M571.307 683.25H933.613" stroke="white" stroke-width="12.98" stroke-linecap="round" stroke-linejoin="round"/>
<path id="Vector_4" d="M529.03 659.165L492.915 628.505L529.03 597.837" stroke="#0C0D0D" stroke-width="12.98" stroke-linecap="round" stroke-linejoin="round"/>
<path id="Vector_5" d="M977.528 768.711L1013.63 738.05L977.52 707.389" stroke="#0C0D0D" stroke-width="12.98" stroke-linecap="round" stroke-linejoin="round"/>
<path id="Vector_6" d="M533.805 737.673H948.827" stroke="white" stroke-width="12.98" stroke-linecap="round" stroke-linejoin="round"/>
</g>
<g id="girl">
<path id="Vector_7" d="M658.314 274.778C671.665 275.38 690.766 284.368 690.766 300.034C690.766 315.7 671.536 321.851 654.257 324.406C665.978 336.27 670.785 338.565 669.583 343.668C668.381 348.771 657.564 362.807 656.677 378.884C655.789 394.961 604.389 483.374 594.628 485.929C584.867 488.484 604.114 504.835 536.79 506.671C518.842 506.671 486.276 484.066 486.276 454.611C485.47 390.406 564.055 378.22 607.752 306.589C627.806 273.709 652.119 274.49 658.314 274.778Z" fill="black"/>
<path id="Vector_8" d="M821.575 633.889L837.894 625.888L849.454 642.903L833.135 650.897L821.575 633.889Z" fill="#E49D75"/>
<path id="Vector_9" d="M700.027 666.036L717.023 672.975L707.093 690.655L690.089 683.757L700.027 666.036Z" fill="#E49D75"/>
<path id="Vector_10" d="M794.552 516.007C811.089 516.007 835.41 600.16 845.864 624.833C843.678 629.998 831.272 638.04 824.463 638.04C811.331 619.353 781.912 579.294 776.684 573.102C772.498 568.17 778.015 516.007 794.552 516.007Z" fill="#0C0D0D"/>
<path id="Vector_11" opacity="0.27" d="M788.317 349.95C791.14 348.449 789.809 349.456 792.035 346.689Z" fill="black"/>
<path id="Vector_12" d="M604.905 500.547C590.57 500.547 578.761 497.923 578.761 526.577C578.761 555.23 615.593 579.096 659.306 579.096C703.02 579.096 722.364 578.109 726.348 577.287C727.526 586.761 701.761 651.678 698.994 668.392C700.971 672.859 713.756 678.421 719.161 678.421C724.566 678.421 796.472 579.24 794.601 517.953C794.851 508.363 753.307 505.712 727.058 505.712C700.809 505.712 644.94 508.28 637.873 508.28" fill="#0C0D0D"/>
<path id="Vector_13" d="M583.762 503.362C581.939 496.985 572.114 359.937 631.057 362.382C690 364.828 689.395 486.956 682.684 506.232C655.781 515.904 585.682 510.096 583.762 503.362Z" fill="#F6B7FC"/>
<path id="Vector_14" d="M650.941 351.511C650.014 353.381 645.012 363.341 644.085 367.41C643.157 371.479 617.82 366.335 619.239 364.3C627.629 352.272 629 339.64 630.363 333.318C631.614 327.536 657.08 339.127 650.941 351.511Z" fill="#D18C65"/>
<path id="Vector_15" d="M643.665 432.026L607.301 435.314C604.824 437.904 605.897 444.027 605.857 447.178C605.695 458.823 606.308 471.838 614.601 481.648C617.828 485.463 623.111 489.183 628.314 489.121C636.462 491.861 650.054 495.019 650.054 495.019L670.68 498.882C670.68 498.882 705.48 504.122 722.662 503.78C728.381 503.657 734.197 503.095 739.909 503.232C743.224 503.307 748.483 504.184 751.581 503.232C752.485 502.951 752.267 501.259 752.049 500.595C751.307 498.273 748.693 496.642 746.289 495.628C740.707 493.272 737.545 494.765 731.818 494.848C727.131 494.916 721.541 492.888 713.41 490.183C703.818 486.991 692.88 483.093 683.103 480.298C671.963 477.113 660.597 473.674 649.723 469.893C647.578 469.146 645.295 468.605 643.044 468.009C644.073 463.031 644.655 457.993 644.786 452.939C645.037 447.459 645.141 441.705 644.198 436.307C643.956 434.917 644.351 433.314 643.665 432.026Z" fill="#E49D75"/>
<path id="Vector_16" d="M597.621 436.164C591.433 422.203 596.814 378.569 616.9 375.712C644.843 372.192 653.2 427.32 650.433 433.766C645.488 436.287 617.787 444.623 597.621 436.164Z" fill="#F6B7FC"/>
<path id="Vector_17" d="M680.828 304.445C665.811 316.607 646.032 323.628 625.289 324.159C624.323 325.195 623.795 326.476 623.789 327.797C623.797 329.271 624.428 330.694 625.566 331.807C626.704 332.921 628.274 333.651 629.992 333.866C631.791 343.202 637.607 350.518 646.174 352.731C659.887 356.279 675.545 345.353 681.094 328.324C683.902 319.72 683.587 311.22 680.828 304.445Z" fill="#E49D75"/>
<path id="Vector_18" d="M702.197 504.692C716.717 504.692 769.15 504.335 778.774 504.335Z" fill="#FFC88E"/>
<path id="Vector_19" d="M829.707 646.328L842.008 663.7L896.466 635.896L892.982 630.971L849.535 636.204L829.707 646.328Z" fill="black"/>
<path id="Vector_20" d="M692.573 679.435L681.506 697.395L737.811 722.411L740.949 717.322L713.071 688.552L692.573 679.435Z" fill="black"/>
</g>
<g id="laptop">
<path id="Vector_21" d="M693.227 505.266C708.553 505.266 761.455 504.205 770.231 504.205C777.039 495.3 808.661 448.391 810.75 444.843" stroke="#9D9D9D" stroke-width="5.79" stroke-linecap="round" stroke-linejoin="round"/>
</g>
</g>
</g>
</svg>
